<?xml version="1.0" encoding="UTF-8"?>
<svg version="1.1" xmlns="http://www.w3.org/2000/svg" width="823" height="541">
<path d="M0 0 C2.31 0 4.62 0 7 0 C7.13277344 0.72058594 7.26554687 1.44117188 7.40234375 2.18359375 C8.15717486 5.74067367 9.26519451 9.13928821 10.37890625 12.59765625 C11 15 11 15 11 19 C11.66 19 12.32 19 13 19 C12.835 19.639375 12.67 20.27875 12.5 20.9375 C11.96073333 22.80826821 11.96073333 22.80826821 12 24 C12 24.66 12 25.32 12 26 C11.34 26 10.68 26 10 26 C10.99 29.3 11.98 32.6 13 36 C14.32 36.103125 15.64 36.20625 17 36.3125 C23.80759706 37.08317137 30.17858633 38.91796938 35 44 C39.02085046 50.61788701 41.71456647 56.56627068 40.4375 64.375 C38.8505251 70.69094709 35.15756595 75.73194306 29.8125 79.4375 C23.77188858 82.79339523 17.76186809 82.66754795 11 82 C4.66171715 80.08072676 0.51096679 76.23237923 -2.828125 70.5859375 C-5.3883645 64.93634233 -6.90904096 59.33158828 -5.2421875 53.22265625 C-2.6133365 47.43396116 0.96710929 43.75248275 6 40 C6.99 39.01 6.99 39.01 8 38 C8 37.01 8 36.02 8 35 C0.72519756 38.72058503 -6.07491273 42.92549284 -12.78344727 47.57177734 C-16.09449135 49.84026794 -19.16783623 51.68861316 -23 53 C-23 53.66 -23 54.32 -23 55 C-23.99 55.495 -23.99 55.495 -25 56 C-27.36608693 60.23405029 -26.91464004 63.33533582 -26 68 C-25.01 68 -24.02 68 -23 68 C-23 69.32 -23 70.64 -23 72 C-25.31 72 -27.62 72 -30 72 C-31.1577506 68.52674819 -31.06866652 65.63932552 -31 62 C-32.32 62 -33.64 62 -35 62 C-35.24234375 62.66386719 -35.4846875 63.32773437 -35.734375 64.01171875 C-38.72378208 71.88765663 -41.65765405 77.059313 -49.3046875 81.046875 C-55.73649539 83.32131141 -63.16598012 83.20081336 -69.4375 80.4375 C-75.07106807 77.07879768 -78.97669469 72.21706541 -81 66 C-81.87185202 58.65008474 -81.61031278 52.00502925 -77 46 C-72.07460211 40.60449906 -67.45207716 37.37600532 -59.9609375 36.859375 C-56.18997541 36.77463428 -52.65654251 37.08586437 -49 38 C-48.96132812 36.84951172 -48.96132812 36.84951172 -48.921875 35.67578125 C-48 33 -48 33 -45.015625 31.41796875 C-43.77296875 31.01191406 -42.5303125 30.60585938 -41.25 30.1875 C-40.01765625 29.76855469 -38.7853125 29.34960938 -37.515625 28.91796875 C-34.46102953 28.12037993 -32.12305902 27.79139873 -29 28 C-29.845625 28.7425 -30.69125 29.485 -31.5625 30.25 C-32.7690625 31.61125 -32.7690625 31.61125 -34 33 C-33.95502158 35.27523089 -33.95502158 35.27523089 -33 37 C-32.67 35.35 -32.34 33.7 -32 32 C-28 33 -28 33 -26.18359375 33.62109375 C-23.35776379 34.11144349 -21.52964455 33.49994463 -18.8125 32.625 C-17.93207031 32.34914063 -17.05164063 32.07328125 -16.14453125 31.7890625 C-14.04809641 31.18791021 -14.04809641 31.18791021 -13 30 C-11.00041636 29.95919217 -8.99954746 29.95745644 -7 30 C-6.67 29.34 -6.34 28.68 -6 28 C-3.35139573 27.40644386 -0.70802678 27.25790731 2 27 C2 25.35 2 23.7 2 22 C3.65 21.67 5.3 21.34 7 21 C6.85046875 20.28199219 6.7009375 19.56398437 6.546875 18.82421875 C6.19804268 17.02274899 5.8913454 15.21225415 5.640625 13.39453125 C5.25305608 10.83270068 4.83446307 8.4550782 4 6 C1.54251602 4.24431996 1.54251602 4.24431996 -1 4 C-0.67 2.68 -0.34 1.36 0 0 Z M3 24 C4 26 4 26 4 26 Z M3 30 C2.67 30.66 2.34 31.32 2 32 C2.99 31.67 3.98 31.34 5 31 C4.34 30.67 3.68 30.34 3 30 Z M-17 36 C-26.23941959 39.23216445 -26.23941959 39.23216445 -31 40 C-32.26264601 44.29299643 -31.62950412 46.87831311 -30 51 C-25.52948013 49.17115096 -21.16136008 47.16507005 -16.8125 45.0625 C-15.80832031 44.57910156 -14.80414063 44.09570312 -13.76953125 43.59765625 C-10.99506225 41.99715157 -9.06476251 40.4392779 -7 38 C-7 37.34 -7 36.68 -7 36 C-10.83911809 33.34214901 -12.82443755 34.34553186 -17 36 Z M-47 41 C-46.34 41 -45.68 41 -45 41 C-45.66 42.98 -46.32 44.96 -47 47 C-45.02 45.68 -43.04 44.36 -41 43 C-41.33 41.35 -41.66 39.7 -42 38 C-43.96822886 38 -45.50528545 39.84280164 -47 41 Z M14 39 C14.66 40.32 15.32 41.64 16 43 C15.67 41.68 15.34 40.36 15 39 C14.67 39 14.34 39 14 39 Z M-70.875 48.4375 C-74.47031698 52.7730293 -75.52211663 56.03985663 -75.375 61.62109375 C-74.60646113 66.4965122 -72.09189007 70.15726805 -68.42578125 73.38671875 C-63.90192018 76.392081 -59.30340633 76.91988287 -54 76 C-48.70964839 74.14993598 -45.56900406 70.94039242 -43 66 C-42.62486823 64.00741694 -42.2851784 62.00743229 -42 60 C-44.22972273 60.11465421 -46.45878753 60.24214766 -48.6875 60.375 C-49.92886719 60.44460938 -51.17023438 60.51421875 -52.44921875 60.5859375 C-55.69317772 60.96422094 -58.06567185 61.61979976 -61 63 C-61 61.35 -61 59.7 -61 58 C-59.96875 57.443125 -58.9375 56.88625 -57.875 56.3125 C-54.2075445 54.22854871 -51.16569055 51.77963073 -48 49 C-48.33 48.01 -48.66 47.02 -49 46 C-51.02738307 44.97485126 -51.02738307 44.97485126 -53.4375 44.3125 C-54.64212891 43.93544922 -54.64212891 43.93544922 -55.87109375 43.55078125 C-61.49278529 42.09636197 -66.67445177 44.87616563 -70.875 48.4375 Z M-38 44 C-37.34 44.66 -36.68 45.32 -36 46 C-36 45.34 -36 44.68 -36 44 C-36.66 44 -37.32 44 -38 44 Z M15 44 C15.65305562 48.46254673 16.57234078 52.71702233 18 57 C18.66 57.33 19.32 57.66 20 58 C19.67 59.32 19.34 60.64 19 62 C17.68 61.67 16.36 61.34 15 61 C14.896875 60.030625 14.79375 59.06125 14.6875 58.0625 C14.05370121 53.51406161 12.55244173 49.30582896 11 45 C6.13174061 47.4341297 3.14682661 50.67005769 1.3515625 55.8828125 C0.6606369 60.04371999 1.69514838 64.04045027 3 68 C5.16744884 71.00179441 5.16744884 71.00179441 8 73 C8.721875 73.598125 9.44375 74.19625 10.1875 74.8125 C14.45907463 76.61605373 18.43514956 76.6594487 23 76 C27.42484878 73.78757561 30.19476657 71.05200384 33 67 C34.60722415 62.17832754 34.38629143 58.29521246 32.9375 53.4375 C30.59170871 49.27561223 28.26325326 46.26561459 24 44 C20.92516126 43.53559669 18.07993678 43.62286488 15 44 Z M-37 49 C-37.2475 49.639375 -37.495 50.27875 -37.75 50.9375 C-39 53 -39 53 -41.125 53.75 C-42.053125 53.87375 -42.053125 53.87375 -43 54 C-43 54.66 -43 55.32 -43 56 C-37.98464948 55.67039784 -37.98464948 55.67039784 -34 53 C-34.33 52.01 -34.66 51.02 -35 50 C-35.66 49.67 -36.32 49.34 -37 49 Z M-46 51 C-46.99 52.485 -46.99 52.485 -48 54 C-47.01 54.33 -46.02 54.66 -45 55 C-44.67 54.01 -44.34 53.02 -44 52 C-44.66 51.67 -45.32 51.34 -46 51 Z M-51 55 C-51.33 55.66 -51.66 56.32 -52 57 C-51.01 56.67 -50.02 56.34 -49 56 C-49.66 55.67 -50.32 55.34 -51 55 Z " fill="#FDFDFD" transform="translate(225,227)"/>
<path d="M0 0 C1.55819604 1.88209072 2.68082091 3.79989925 3.82421875 5.95703125 C4.88568434 8.00638949 4.88568434 8.00638949 6.39111328 9.390625 C8.09029767 11.09032507 9.48383111 12.86536439 10.91796875 14.79296875 C11.44970703 15.50517578 11.98144531 16.21738281 12.52929688 16.95117188 C13.35010742 18.0581543 13.35010742 18.0581543 14.1875 19.1875 C14.74630859 19.93708984 15.30511719 20.68667969 15.88085938 21.45898438 C17.25609096 23.3043806 18.62904876 25.15142294 20 27 C21.30353538 24.39292925 21.09670911 22.50498219 21.0625 19.58984375 C21.05476562 18.51798828 21.04703125 17.44613281 21.0390625 16.34179688 C21.02617188 15.21837891 21.01328125 14.09496094 21 12.9375 C20.97461401 10.71749531 20.95353919 8.49743565 20.9375 6.27734375 C20.92589844 5.28984131 20.91429687 4.30233887 20.90234375 3.28491211 C21 1 21 1 22 0 C24.67058851 -0.14115161 27.32432238 -0.04247107 30 0 C31.18695418 2.37390836 31.12075833 3.80244951 31.11352539 6.44970703 C31.11344986 7.37051056 31.11337433 8.29131409 31.11329651 9.24002075 C31.10813522 10.23589203 31.10297394 11.23176331 31.09765625 12.2578125 C31.0962413 13.27600067 31.09482635 14.29418884 31.09336853 15.3432312 C31.087759 18.60385035 31.07520488 21.86440151 31.0625 25.125 C31.05748623 27.33203026 31.05292311 29.53906159 31.04882812 31.74609375 C31.03778648 37.16408581 31.02103905 42.58203805 31 48 C23.55814809 48.38511285 23.55814809 48.38511285 21.10131836 46.68994141 C20.68503174 46.08327637 20.26874512 45.47661133 19.83984375 44.8515625 C19.3593457 44.18012207 18.87884766 43.50868164 18.38378906 42.81689453 C17.90651367 42.09356934 17.42923828 41.37024414 16.9375 40.625 C16.42799805 39.89780762 15.91849609 39.17061523 15.39355469 38.42138672 C14.37799607 36.9670423 13.37332334 35.50502796 12.38037109 34.03515625 C10.56271305 31.35528405 8.65055808 28.74645942 6.75 26.125 C4 22.26190476 4 22.26190476 4 20 C3.34 20 2.68 20 2 20 C2 19.01 2 18.02 2 17 C1.34 17 0.68 17 0 17 C-4 11.58823529 -4 11.58823529 -4 9 C-4.66 9 -5.32 9 -6 9 C-7.32 6.36 -8.64 3.72 -10 1 C-3.45882353 -0.63529412 -3.45882353 -0.63529412 0 0 Z " fill="#FEFDFD" transform="translate(650,245)"/>
<path d="M0 0 C1.125 6.75 1.125 6.75 0 9 C-3.28871634 9.29966389 -6.53453698 9.41546886 -9.83398438 9.47851562 C-14.55592718 9.657278 -17.95888499 10.30789556 -22 13 C-25.59858693 17.51154768 -25.51401654 21.54194356 -25.3359375 27.1171875 C-24.8622308 31.18225196 -23.97756861 33.16767864 -21 36 C-15.16969295 39.1062101 -8.89816102 39.42090996 -2.40625 39.69140625 C-1.6121875 39.79324219 -0.818125 39.89507812 0 40 C1.35439668 42.70879335 1.06501451 45.00933268 1 48 C-10.51768939 48.38156762 -20.58990296 48.6991703 -30 41 C-33.75767144 36.81437153 -36.15592046 32.62719692 -37 27 C-36.45805738 17.96310677 -33.44833314 11.78475589 -27.4375 5.1875 C-19.79811796 -0.5957662 -9.11463675 -0.43633899 0 0 Z " fill="#FDFCFD" transform="translate(329,245)"/>
<path d="M0 0 C1 1 1 1 1.09765625 2.84765625 C1.06510417 4.8984375 1.03255208 6.94921875 1 9 C-0.07378906 9.02578125 -1.14757812 9.0515625 -2.25390625 9.078125 C-12.91390505 9.15009555 -12.91390505 9.15009555 -22 14 C-25.1772609 18.96447015 -25.41147944 22.90487164 -24.55859375 28.69921875 C-23.72589016 32.12902586 -22.73528673 33.74338845 -20 36 C-13.40583431 39.31105354 -6.25565828 39.64396939 1 40 C1 42.64 1 45.28 1 48 C-19.72919648 48.74625107 -19.72919648 48.74625107 -27.9375 42.125 C-32.41416673 37.86953327 -34.70600451 33.64102104 -35.203125 27.484375 C-35.34445163 19.24032134 -34.47981497 13.35509859 -28.75 7.1875 C-20.65565137 -0.2933822 -10.55002957 -0.55785537 0 0 Z " fill="#FDFCFD" transform="translate(428,245)"/>
<path d="M0 0 C2.97 0 5.94 0 9 0 C9.33 12.87 9.66 25.74 10 39 C15.94 39 21.88 39 28 39 C29.98 39.66 31.96 40.32 34 41 C33.67 43.31 33.34 45.62 33 48 C22.11 48 11.22 48 0 48 C-0.16553474 41.48557134 -0.32794114 34.97122611 -0.48217773 28.45654297 C-0.53564069 26.23904904 -0.59097328 24.02159938 -0.64819336 21.80419922 C-0.72998452 18.62216745 -0.8051129 15.44003851 -0.87890625 12.2578125 C-0.90594131 11.26194122 -0.93297638 10.26606995 -0.96083069 9.24002075 C-0.98092697 8.31921722 -1.00102325 7.3984137 -1.02172852 6.44970703 C-1.04171402 5.6369632 -1.06169952 4.82421936 -1.08229065 3.98684692 C-1 2 -1 2 0 0 Z " fill="#FEFDFE" transform="translate(444,245)"/>
<path d="M0 0 C0.7734375 0.11601562 1.546875 0.23203125 2.34375 0.3515625 C-0.47708584 4.23974163 -3.33922498 8.02217164 -6.50390625 11.63671875 C-7.00172607 12.20817627 -7.4995459 12.77963379 -8.01245117 13.3684082 C-9.01601456 14.51360937 -10.02780169 15.65166153 -11.0480957 16.78198242 C-13.85015175 19.98785992 -14.65625 20.92959046 -14.65625 25.3515625 C-7.39625 25.6815625 -0.13625 26.0115625 7.34375 26.3515625 C7.34375 28.9915625 7.34375 31.6315625 7.34375 34.3515625 C-5.52625 34.3515625 -18.39625 34.3515625 -31.65625 34.3515625 C-32.98186151 31.70033949 -32.36900675 30.04687164 -31.51660156 27.29541016 C-29.90458973 23.65328808 -27.21549498 20.93266574 -24.53125 18.0390625 C-20.53341117 13.65121726 -16.91871632 9.34879053 -13.59375 4.4140625 C-9.73293603 -0.60914708 -6.0615392 -0.52513335 0 0 Z " fill="#FDFDFD" transform="translate(572.65625,258.6484375)"/>
<path d="M0 0 C3.53234306 -0.70362568 6.49142341 -0.90676869 10 0 C12.28183855 2.42416651 13.68428428 4.92151565 15.2734375 7.84375 C17.54444297 11.99527131 20.3537469 15.62765341 23.203125 19.39453125 C27.72745967 25.95481652 28.40437951 30.57845964 28.1875 38.375 C28.16719727 39.76525391 28.16719727 39.76525391 28.14648438 41.18359375 C28.11134435 43.45598208 28.05754423 45.72806862 28 48 C24.7 48 21.4 48 18 48 C18.06574219 46.22109375 18.06574219 46.22109375 18.1328125 44.40625 C18.25081673 31.19938079 14.83531977 23.41955927 7 13 C5.62000084 11.06605751 4.24421536 9.12909227 2.875 7.1875 C2.31554687 6.43855469 1.75609375 5.68960938 1.1796875 4.91796875 C0 3 0 3 0 0 Z " fill="#FDFDFD" transform="translate(338,245)"/>
<path d="M0 0 C1.60279192 0.00015914 3.20558896 0.00585476 4.80834961 0.01586914 C5.65038437 0.01728409 6.49241913 0.01869904 7.35997009 0.02015686 C10.06024671 0.02577276 12.76044163 0.03832791 15.46069336 0.05102539 C17.28686404 0.05603834 19.11303602 0.06060161 20.93920898 0.06469727 C25.42556878 0.07574735 29.9118672 0.0930226 34.39819336 0.11352539 C34.39819336 3.08352539 34.39819336 6.05352539 34.39819336 9.11352539 C21.85819336 9.11352539 9.31819336 9.11352539 -3.60180664 9.11352539 C-4.58330905 6.16901817 -4.76311244 4.1783356 -4.60180664 1.11352539 C-3.60180664 0.11352539 -3.60180664 0.11352539 0 0 Z " fill="#FEFDFD" transform="translate(545.601806640625,244.886474609375)"/>
<path d="M0 0 C1.12775345 0.00212242 1.12775345 0.00212242 2.27828979 0.00428772 C4.6829626 0.0098916 7.08754277 0.02244468 9.4921875 0.03515625 C11.12109241 0.04017075 12.74999877 0.04473375 14.37890625 0.04882812 C18.37503577 0.05986228 22.37109592 0.07712946 26.3671875 0.09765625 C26.3671875 3.06765625 26.3671875 6.03765625 26.3671875 9.09765625 C14.4871875 9.09765625 2.6071875 9.09765625 -9.6328125 9.09765625 C-9.6328125 6.45765625 -9.6328125 3.81765625 -9.6328125 1.09765625 C-6.56686656 -0.43531672 -3.36169397 -0.0236583 0 0 Z " fill="#FEFEFE" transform="translate(601.6328125,244.90234375)"/>
<path d="M0 0 C0.6790892 -0.00095673 1.35817841 -0.00191345 2.05784607 -0.00289917 C3.49095757 -0.00357874 4.92407217 -0.00174003 6.35717773 0.00244141 C8.55394369 0.00780115 10.75050596 0.00248468 12.94726562 -0.00390625 C14.3398442 -0.00324559 15.73242265 -0.00196468 17.125 0 C18.3941626 0.00112793 19.6633252 0.00225586 20.97094727 0.00341797 C23.99609375 0.1328125 23.99609375 0.1328125 25.99609375 1.1328125 C25.99609375 3.7728125 25.99609375 6.4128125 25.99609375 9.1328125 C14.11609375 9.1328125 2.23609375 9.1328125 -10.00390625 9.1328125 C-10.00390625 6.4928125 -10.00390625 3.8528125 -10.00390625 1.1328125 C-6.49213418 -0.03777819 -3.70459382 0.00328942 0 0 Z " fill="#FEFEFE" transform="translate(602.00390625,283.8671875)"/>
<path d="M0 0 C11.22 0 22.44 0 34 0 C36 4 36 4 35 9 C23.45 9 11.9 9 0 9 C-1 7 -1 7 0 0 Z " fill="#FEFEFE" transform="translate(493,284)"/>
<path d="M0 0 C0.66 0 1.32 0 2 0 C2.33773437 0.62648438 2.67546875 1.25296875 3.0234375 1.8984375 C3.46945312 2.71570313 3.91546875 3.53296875 4.375 4.375 C4.81585937 5.18710937 5.25671875 5.99921875 5.7109375 6.8359375 C6.9443893 9.10814302 6.9443893 9.10814302 9 11 C9.22705078 13.61376953 9.22705078 13.61376953 9.1953125 16.8828125 C9.18564453 18.63271484 9.18564453 18.63271484 9.17578125 20.41796875 C9.15902344 21.64128906 9.14226563 22.86460937 9.125 24.125 C9.11597656 25.35605469 9.10695313 26.58710938 9.09765625 27.85546875 C9.07402548 30.90383815 9.04108054 33.95182382 9 37 C5.7 37 2.4 37 -1 37 C-1.0246501 31.89136104 -1.04283607 26.78275641 -1.05493164 21.67407227 C-1.05997204 19.93480832 -1.0668043 18.19554864 -1.07543945 16.45629883 C-1.08751792 13.96174063 -1.09323108 11.46723827 -1.09765625 8.97265625 C-1.10281754 8.19036148 -1.10797882 7.40806671 -1.11329651 6.60206604 C-1.11349226 4.73432886 -1.06199694 2.86670796 -1 1 C-0.67 0.67 -0.34 0.34 0 0 Z " fill="#FEFDFE" transform="translate(640,256)"/>
<path d="M0 0 C4.96622349 -0.02465098 9.93241166 -0.04283649 14.89868164 -0.05493164 C16.58944316 -0.0599719 18.28020029 -0.06680405 19.97094727 -0.07543945 C22.39600707 -0.08751857 24.82100944 -0.09323123 27.24609375 -0.09765625 C28.38672523 -0.10539818 28.38672523 -0.10539818 29.55039978 -0.11329651 C31.3673257 -0.11349238 33.18413127 -0.06197277 35 0 C36 1 36 1 36.125 4.5 C36 8 36 8 35 9 C32.40640678 9.08851529 29.83960309 9.11525945 27.24609375 9.09765625 C26.47064713 9.0962413 25.6952005 9.09482635 24.89625549 9.09336853 C22.40996506 9.08775345 19.9237634 9.07519846 17.4375 9.0625 C15.75586067 9.05748694 14.07421994 9.0529237 12.39257812 9.04882812 C8.26168434 9.03777913 4.13085724 9.02050445 0 9 C0 6.03 0 3.06 0 0 Z " fill="#FEFEFE" transform="translate(493,245)"/>
<path d="M0 0 C0.8971875 -0.00128906 1.794375 -0.00257813 2.71875 -0.00390625 C4.12253906 0.00189453 4.12253906 0.00189453 5.5546875 0.0078125 C6.46734375 0.00394531 7.38 0.00007813 8.3203125 -0.00390625 C14.10166055 0.00432929 19.69550371 0.39405263 25.4296875 1.1328125 C25.4296875 3.7728125 25.4296875 6.4128125 25.4296875 9.1328125 C14.5396875 9.1328125 3.6496875 9.1328125 -7.5703125 9.1328125 C-7.5703125 6.4928125 -7.5703125 3.8528125 -7.5703125 1.1328125 C-4.72645868 0.18486123 -2.94853786 0.00412218 0 0 Z " fill="#FDFCFD" transform="translate(499.5703125,263.8671875)"/>
<path d="M0 0 C1.14919922 -0.00128906 2.29839844 -0.00257813 3.48242188 -0.00390625 C4.66771484 -0.00003906 5.85300781 0.00382812 7.07421875 0.0078125 C8.88116211 0.00201172 8.88116211 0.00201172 10.72460938 -0.00390625 C12.43874023 -0.00197266 12.43874023 -0.00197266 14.1875 0 C15.23333252 0.00112793 16.27916504 0.00225586 17.35668945 0.00341797 C19.76171875 0.1328125 19.76171875 0.1328125 20.76171875 1.1328125 C20.76171875 3.7728125 20.76171875 6.4128125 20.76171875 9.1328125 C9.87171875 9.1328125 -1.01828125 9.1328125 -12.23828125 9.1328125 C-12.23828125 6.4928125 -12.23828125 3.8528125 -12.23828125 1.1328125 C-8.10722065 0.35459194 -4.20157879 0.0045071 0 0 Z " fill="#FDFCFD" transform="translate(604.23828125,263.8671875)"/>
<path d="M0 0 C0.66 0.66 1.32 1.32 2 2 C1.67201416 2.50450684 1.34402832 3.00901367 1.00610352 3.52880859 C-0.4761785 5.81017226 -1.95685741 8.09257202 -3.4375 10.375 C-3.95376953 11.1690625 -4.47003906 11.963125 -5.00195312 12.78125 C-5.74155273 13.92207031 -5.74155273 13.92207031 -6.49609375 15.0859375 C-6.95169678 15.7876709 -7.4072998 16.4894043 -7.87670898 17.21240234 C-9.04092365 19.00082655 -9.04092365 19.00082655 -10 21 C-10.66 21 -11.32 21 -12 21 C-12 21.66 -12 22.32 -12 23 C-13.32 22.67 -14.64 22.34 -16 22 C-16 21.34 -16 20.68 -16 20 C-16.66 20 -17.32 20 -18 20 C-18.69921875 18.2734375 -18.69921875 18.2734375 -19 16 C-17.70703125 13.8515625 -17.70703125 13.8515625 -15.8125 11.625 C-13.62218131 8.98091011 -11.5242112 6.40228411 -9.6875 3.5 C-6.96680502 -0.53065923 -4.6719745 -0.29199841 0 0 Z " fill="#FBFBFB" transform="translate(382,245)"/>
<path d="" fill="#000000" transform="translate(0,0)"/>
<path d="" fill="#000000" transform="translate(0,0)"/>
<path d="" fill="#000000" transform="translate(0,0)"/>
<path d="" fill="#000000" transform="translate(0,0)"/>
<path d="" fill="#000000" transform="translate(0,0)"/>
<path d="" fill="#000000" transform="translate(0,0)"/>
<path d="" fill="#000000" transform="translate(0,0)"/>
<path d="" fill="#000000" transform="translate(0,0)"/>
<path d="" fill="#000000" transform="translate(0,0)"/>
<path d="" fill="#000000" transform="translate(0,0)"/>
<path d="" fill="#000000" transform="translate(0,0)"/>
<path d="" fill="#000000" transform="translate(0,0)"/>
<path d="" fill="#000000" transform="translate(0,0)"/>
<path d="" fill="#000000" transform="translate(0,0)"/>
<path d="" fill="#000000" transform="translate(0,0)"/>
<path d="" fill="#000000" transform="translate(0,0)"/>
<path d="" fill="#000000" transform="translate(0,0)"/>
<path d="" fill="#000000" transform="translate(0,0)"/>
<path d="" fill="#000000" transform="translate(0,0)"/>
<path d="" fill="#000000" transform="translate(0,0)"/>
<path d="" fill="#000000" transform="translate(0,0)"/>
<path d="" fill="#000000" transform="translate(0,0)"/>
<path d="" fill="#000000" transform="translate(0,0)"/>
<path d="" fill="#000000" transform="translate(0,0)"/>
<path d="" fill="#000000" transform="translate(0,0)"/>
<path d="" fill="#000000" transform="translate(0,0)"/>
<path d="" fill="#000000" transform="translate(0,0)"/>
<path d="" fill="#000000" transform="translate(0,0)"/>
<path d="" fill="#000000" transform="translate(0,0)"/>
<path d="" fill="#000000" transform="translate(0,0)"/>
<path d="" fill="#000000" transform="translate(0,0)"/>
<path d="" fill="#000000" transform="translate(0,0)"/>
<path d="" fill="#000000" transform="translate(0,0)"/>
<path d="" fill="#000000" transform="translate(0,0)"/>
<path d="" fill="#000000" transform="translate(0,0)"/>
<path d="" fill="#000000" transform="translate(0,0)"/>
<path d="" fill="#000000" transform="translate(0,0)"/>
<path d="" fill="#000000" transform="translate(0,0)"/>
<path d="" fill="#000000" transform="translate(0,0)"/>
<path d="" fill="#000000" transform="translate(0,0)"/>
<path d="" fill="#000000" transform="translate(0,0)"/>
<path d="" fill="#000000" transform="translate(0,0)"/>
<path d="" fill="#000000" transform="translate(0,0)"/>
<path d="" fill="#000000" transform="translate(0,0)"/>
<path d="" fill="#000000" transform="translate(0,0)"/>
<path d="" fill="#000000" transform="translate(0,0)"/>
<path d="" fill="#000000" transform="translate(0,0)"/>
<path d="" fill="#000000" transform="translate(0,0)"/>
<path d="" fill="#000000" transform="translate(0,0)"/>
<path d="" fill="#000000" transform="translate(0,0)"/>
<path d="" fill="#000000" transform="translate(0,0)"/>
<path d="" fill="#000000" transform="translate(0,0)"/>
<path d="" fill="#000000" transform="translate(0,0)"/>
<path d="" fill="#000000" transform="translate(0,0)"/>
<path d="" fill="#000000" transform="translate(0,0)"/>
<path d="" fill="#000000" transform="translate(0,0)"/>
<path d="" fill="#000000" transform="translate(0,0)"/>
<path d="" fill="#FFFFFF" transform="translate(0,0)"/>
<path d="" fill="#000000" transform="translate(0,0)"/>
<path d="" fill="#FFFFFF" transform="translate(0,0)"/>
<path d="" fill="#FFFFFF" transform="translate(0,0)"/>
<path d="" fill="#FFFFFF" transform="translate(0,0)"/>
<path d="" fill="#FFFFFF" transform="translate(0,0)"/>
<path d="" fill="#000000" transform="translate(0,0)"/>
<path d="" fill="#000000" transform="translate(0,0)"/>
<path d="" fill="#000000" transform="translate(0,0)"/>
<path d="" fill="#000000" transform="translate(0,0)"/>
<path d="" fill="#000000" transform="translate(0,0)"/>
<path d="" fill="#000000" transform="translate(0,0)"/>
<path d="" fill="#000000" transform="translate(0,0)"/>
<path d="" fill="#000000" transform="translate(0,0)"/>
<path d="" fill="#000000" transform="translate(0,0)"/>
<path d="" fill="#000000" transform="translate(0,0)"/>
<path d="" fill="#000000" transform="translate(0,0)"/>
<path d="" fill="#000000" transform="translate(0,0)"/>
<path d="" fill="#000000" transform="translate(0,0)"/>
<path d="" fill="#000000" transform="translate(0,0)"/>
<path d="" fill="#000000" transform="translate(0,0)"/>
<path d="" fill="#000000" transform="translate(0,0)"/>
<path d="" fill="#000000" transform="translate(0,0)"/>
<path d="" fill="#000000" transform="translate(0,0)"/>
<path d="" fill="#000000" transform="translate(0,0)"/>
<path d="" fill="#000000" transform="translate(0,0)"/>
<path d="" fill="#000000" transform="translate(0,0)"/>
<path d="" fill="#000000" transform="translate(0,0)"/>
<path d="" fill="#000000" transform="translate(0,0)"/>
<path d="" fill="#000000" transform="translate(0,0)"/>
<path d="" fill="#000000" transform="translate(0,0)"/>
<path d="" fill="#000000" transform="translate(0,0)"/>
<path d="" fill="#000000" transform="translate(0,0)"/>
<path d="" fill="#000000" transform="translate(0,0)"/>
<path d="" fill="#000000" transform="translate(0,0)"/>
<path d="" fill="#000000" transform="translate(0,0)"/>
<path d="" fill="#000000" transform="translate(0,0)"/>
<path d="" fill="#000000" transform="translate(0,0)"/>
<path d="" fill="#000000" transform="translate(0,0)"/>
<path d="" fill="#000000" transform="translate(0,0)"/>
<path d="" fill="#000000" transform="translate(0,0)"/>
<path d="" fill="#000000" transform="translate(0,0)"/>
<path d="" fill="#000000" transform="translate(0,0)"/>
<path d="" fill="#000000" transform="translate(0,0)"/>
<path d="" fill="#000000" transform="translate(0,0)"/>
<path d="" fill="#000000" transform="translate(0,0)"/>
<path d="" fill="#000000" transform="translate(0,0)"/>
<path d="" fill="#000000" transform="translate(0,0)"/>
<path d="" fill="#000000" transform="translate(0,0)"/>
<path d="" fill="#000000" transform="translate(0,0)"/>
<path d="" fill="#000000" transform="translate(0,0)"/>
</svg>
